<?xml version="1.0" encoding="UTF-8" standalone="no"?>
<!-- Created with Inkscape (http://www.inkscape.org/) -->

<svg
   width="104.33833mm"
   height="145.85941mm"
   viewBox="0 0 104.33832 145.8594"
   version="1.1"
   id="svg1"
   xml:space="preserve"
   inkscape:export-filename="st1-txt.png"
   inkscape:export-xdpi="96"
   inkscape:export-ydpi="96"
   inkscape:version="1.3 (0e150ed6c4, 2023-07-21)"
   sodipodi:docname="st1-txt.svg"
   xmlns:inkscape="http://www.inkscape.org/namespaces/inkscape"
   xmlns:sodipodi="http://sodipodi.sourceforge.net/DTD/sodipodi-0.dtd"
   xmlns:xlink="http://www.w3.org/1999/xlink"
   xmlns="http://www.w3.org/2000/svg"
   xmlns:svg="http://www.w3.org/2000/svg"><sodipodi:namedview
     id="namedview1"
     pagecolor="#ffffff"
     bordercolor="#000000"
     borderopacity="0.25"
     inkscape:showpageshadow="2"
     inkscape:pageopacity="0.0"
     inkscape:pagecheckerboard="0"
     inkscape:deskcolor="#d1d1d1"
     inkscape:document-units="mm"
     inkscape:zoom="0.37979147"
     inkscape:cx="18.431167"
     inkscape:cy="347.55915"
     inkscape:window-width="1057"
     inkscape:window-height="1121"
     inkscape:window-x="0"
     inkscape:window-y="0"
     inkscape:window-maximized="1"
     inkscape:current-layer="g1"
     showgrid="false" /><defs
     id="defs1"><rect
       x="-6.757121e-07"
       y="392.96152"
       width="394.34961"
       height="139.84222"
       id="rect1" /><linearGradient
       id="linearGradient1"
       inkscape:collect="always"><stop
         style="stop-color:#007053;stop-opacity:1;"
         offset="0"
         id="stop1" /><stop
         style="stop-color:#89ff26;stop-opacity:1;"
         offset="1"
         id="stop2" /></linearGradient><linearGradient
       inkscape:collect="always"
       xlink:href="#linearGradient1"
       id="linearGradient2"
       x1="106.00682"
       y1="69.304138"
       x2="205.08476"
       y2="160.15515"
       gradientUnits="userSpaceOnUse" /></defs><g
     inkscape:label="Layer 1"
     inkscape:groupmode="layer"
     id="layer1"
     transform="translate(-47.830836,-48.014466)"><g
       id="g1"
       transform="translate(-45.001071,34.268687)"><g
         id="g2"
         transform="translate(0.22708148)" /><g
         id="g19"
         transform="translate(-13.174915,-46.322142)"><path
           style="fill:none;stroke:url(#linearGradient2);stroke-width:8;stroke-dasharray:none"
           d="m 155.94205,126.69643 v -6.4874 l -0.85759,-1.74246 c -1.98044,-4.02389 -6.50583,-6.4761 -10.70361,-5.80007 -4.07827,0.65679 -7.0812,3.19703 -8.39714,7.10333 -0.51152,1.51843 -0.54687,2.22321 -0.54687,10.90325 v 9.2799 l -2.05052,-0.0773 -2.05052,-0.0773 v -9.525 c 0,-9.11436 0.0254,-9.60583 0.58982,-11.40008 0.8505,-2.70377 1.78574,-4.24117 3.78737,-6.22591 5.23692,-5.1927 13.53451,-5.61981 19.10458,-0.98341 l 1.25677,1.04611 v -4.26024 c 0,-4.77207 -0.38906,-7.26962 -1.57382,-10.102963 -2.22612,-5.323741 -7.061,-9.897145 -12.37303,-11.703883 -11.80438,-4.014927 -24.07064,2.526378 -27.48764,14.658506 -0.44905,1.59434 -0.49056,3.37478 -0.56909,24.40781 l -0.0847,22.68802 h -1.98288 -1.98288 l 0.0781,-23.21719 c 0.0779,-23.15746 0.0797,-23.22263 0.67348,-25.33385 0.83792,-2.979087 2.66091,-6.507033 4.6824,-9.061612 2.84523,-3.595543 7.5324,-6.896405 11.58201,-8.156446 l 1.52136,-0.473372 v -1.682627 c 0,-7.698865 4.90493,-14.129471 12.18011,-15.96872 2.40122,-0.607055 6.11927,-0.441562 8.53105,0.379722 3.49783,1.19111 6.77343,3.666749 8.32343,6.290686 0.54033,0.914716 0.69514,0.938736 1.05383,0.163514 0.48321,-1.044365 2.46005,-3.085486 4.17023,-4.305846 5.2675,-3.75881 12.33322,-3.907934 17.75616,-0.374748 4.31918,2.814054 6.82902,7.342019 7.16975,12.934828 l 0.15833,2.598906 1.08637,0.314006 c 2.17953,0.629978 5.90214,2.663326 8.06998,4.407959 3.63265,2.92348 6.65504,7.25567 8.10041,11.610833 1.16131,3.499257 1.18785,4.114437 1.18785,27.539947 v 22.33401 h -1.98438 -1.98437 l -0.005,-21.49739 c -0.003,-12.84419 -0.11143,-22.24291 -0.26905,-23.34948 -1.18217,-8.29947 -7.35302,-15.260653 -15.46842,-17.449535 -5.18288,-1.397925 -11.63065,-0.451113 -16.31776,2.396157 -3.36351,2.043221 -6.68496,5.845884 -8.30423,9.507331 -1.27565,2.884487 -1.70017,5.405877 -1.7022,10.110107 -0.001,2.36471 0.0717,4.29948 0.16165,4.29948 0.0899,0 0.57134,-0.35808 1.06979,-0.79572 1.25713,-1.10378 3.73975,-2.31031 5.7093,-2.77468 7.38247,-1.7406 14.89149,2.59167 17.14749,9.8931 0.47814,1.54747 0.52501,2.5187 0.54699,11.33557 l 0.024,9.64308 -1.99732,0.0415 -1.99731,0.0415 -0.0806,-9.65729 -0.0806,-9.65729 -0.83728,-1.76731 c -1.57035,-3.31466 -4.36075,-5.46382 -7.82526,-6.02701 -4.41325,-0.71742 -9.02786,1.80641 -11.00128,6.01683 -0.70736,1.50918 -0.7091,1.52854 -0.7091,7.86291 l -0.13229,26.39429 v 7.0755 h -2.11228 -2.11227 l -0.0705,-6.94531 z M 155.5523,76.396509 c -1.04902,-3.457856 -4.15548,-6.571706 -7.62525,-7.643411 -7.49257,-2.314217 -15.11875,3.22171 -15.13259,10.984908 l -0.003,1.5875 2.71167,0.0484 c 5.60013,0.09995 10.6251,1.835799 14.94779,5.163631 1.47783,1.137704 4.26187,4.001131 5.02875,5.172138 0.44674,0.682153 0.46459,0.467019 0.53339,-6.426694 0.065,-6.510119 0.0248,-7.28552 -0.46093,-8.88647 z m 8.31103,12.072748 c 4.72019,-4.648976 10.31151,-6.976475 17.04508,-7.095353 l 2.74137,-0.0484 -0.12475,-2.116666 c -0.21141,-3.587031 -1.76324,-6.527574 -4.57055,-8.660667 -2.20902,-1.678493 -3.79684,-2.17046 -7.00514,-2.17046 -2.25141,0 -3.05402,0.110917 -4.23333,0.585033 -2.92348,1.175318 -5.48752,3.737131 -6.68002,6.674219 -0.55761,1.373382 -0.59475,1.886656 -0.66045,9.128125 l -0.0696,7.672917 0.56983,-0.79375 c 0.31341,-0.436563 1.65782,-1.865313 2.98757,-3.175 z"
           id="path1"
           sodipodi:nodetypes="ccsssscccsssscssssscccscsscsssssssscsssscccssssssssssscccccsssccccccccsccssssccsscsssssscsss" /></g><path
         style="font-size:124px;font-family:Poppins;-inkscape-font-specification:Poppins;text-align:center;text-anchor:middle;white-space:pre;fill:#009900;fill-opacity:1;stroke-width:11.7568;stroke-linecap:square;paint-order:markers fill stroke"
         d="m 104.4518,159.50875 c 7.28051,0 11.18595,-4.72508 11.18595,-9.49841 0,-12.43955 -18.128957,-7.03944 -18.128957,-15.71819 0,-3.61615 2.844697,-5.49655 6.460847,-5.40011 4.09831,0.0482 6.21979,2.60362 6.50908,4.86974 h 4.82152 c -0.53037,-5.11082 -4.72511,-8.63054 -11.13773,-8.63054 -6.653717,0 -11.13775,3.7608 -11.13775,9.30556 0,12.48776 18.17718,6.70192 18.17718,15.76639 0,3.18222 -2.5072,5.59299 -6.75014,5.59299 -4.676889,0 -6.653715,-2.79649 -6.943007,-5.59299 h -4.676886 c 0.0964,5.54478 4.869739,9.30556 11.619893,9.30556 z m 16.00747,-13.64493 c 0,8.19661 5.44834,13.74137 12.48778,13.74137 4.86974,0 8.29303,-2.50719 9.88414,-5.35191 v 4.91797 h 4.4358 v -26.42199 h -4.4358 v 4.82153 c -1.54289,-2.74826 -4.91796,-5.25547 -9.83593,-5.25547 -7.08765,0 -12.53599,5.30368 -12.53599,13.5485 z m 22.37192,0.0482 c 0,6.21978 -4.14653,9.83592 -8.96805,9.83592 -4.82154,0 -8.91983,-3.66436 -8.91983,-9.88415 0,-6.21976 4.09829,-9.73948 8.91983,-9.73948 4.82152,0 8.96805,3.66435 8.96805,9.78771 z m 11.86099,-22.42012 v 35.67933 h 4.38759 V 123.4919 Z m 11.86097,9.25734 v 26.42199 h 4.3876 v -26.42199 z m 2.26612,-4.29117 c 1.59112,0 2.89293,-1.30181 2.89293,-2.98935 0,-1.68753 -1.30181,-2.98935 -2.89293,-2.98935 -1.68753,0 -2.98934,1.30182 -2.98934,2.98935 0,1.68754 1.30181,2.98935 2.98934,2.98935 z m 23.38446,30.71316 h 4.96617 l -8.53411,-13.35564 8.4859,-13.06635 h -4.58045 l -5.97871,9.78771 -6.26798,-9.78771 h -4.96618 l 8.53411,13.30743 -8.53411,13.11456 h 4.58045 l 6.02692,-9.83593 z"
         id="text1"
         aria-label="Salix" /></g></g></svg>
